<?xml version="1.0" encoding="UTF-8"?>
<svg id="Layer_2" data-name="Layer 2" xmlns="http://www.w3.org/2000/svg" viewBox="0 0 910.15 304.43">
  <defs>
    <style>
      .cls-1, .cls-2, .cls-3 {
        fill: #fff;
      }

      .cls-2 {
        font-family: DRAGONHUNTER, 'DRAGON HUNTER';
        font-size: 24.03px;
      }

      .cls-4 {
        letter-spacing: -.07em;
      }

      .cls-5 {
        letter-spacing: -.08em;
      }

      .cls-6 {
        letter-spacing: -.1em;
      }

      .cls-7 {
        letter-spacing: .05em;
      }

      .cls-3 {
        font-family: Amarante-Regular, Amarante;
        font-size: 15.73px;
        letter-spacing: .07em;
      }
    </style>
  </defs>
  <g id="Layer_1-2" data-name="Layer 1">
    <path class="cls-1" d="M907.81,213.17c-5.04,28.06-17.05,48.7-25.54,60.76-13.87,.17-27.74,.34-41.61,.51,7.95-7.47,21.19-21.86,30.12-43.91,1.56-3.84,4.24-11.01,6.28-20.59,.57-2.66,1.09-5.5,1.52-8.5,.6-4.17,1.04-8.67,1.2-13.43,.11-2.9,.11-5.9-.01-8.98-.1-2.61-.28-5.27-.56-7.99-.2-1.89-.43-3.74-.71-5.57-.51-3.33-1.14-6.57-1.89-9.7-1.21-5.15-2.73-10.03-4.46-14.63-1.2-3.22-2.51-6.3-3.89-9.25-9.31-19.87-21.9-33.43-28.69-39.95-.95-.93-1.79-1.71-2.49-2.35-1.14,1.03-2.36,2.14-3.65,3.34-8.51,7.9-19.72,19.5-26.87,36.47-.4,.93-.77,1.87-1.14,2.83-.96,2.52-1.85,5.02-2.67,7.49-1.43,4.31-2.66,8.54-3.72,12.66-.99,3.91-1.83,7.73-2.52,11.42-.77,4.04-1.36,7.94-1.81,11.67-.47,3.83-.78,7.48-.98,10.93-.25,4.42-.31,8.49-.22,12.17,.08,3.98,.33,7.49,.67,10.45,.16,1.43,.34,2.73,.53,3.89-10.81-.17-21.62-.34-32.43-.51,.6-62.47,1.2-124.93,1.79-187.4,9.96-9.96,19.93-15.04,29.88-25,.09,31.83,.16,58.78,.25,90.61,4.33-5.77,9.95-12.31,17.11-18.89,9.51-8.74,18.87-14.88,26.55-19.15,7.27,4.38,16.96,11.09,26.81,20.94,21.55,21.54,30.24,44.43,34.47,55.91,4.84,13.17,15.79,44.16,8.68,83.75Z"/>
    <path class="cls-1" d="M171.33,272.37c-.04-27.9-.03-55.8-.08-83.71-.03-15.82-.08-31.65-.08-47.47-.02-8.86-.02-17.81,1.8-26.48,2.36-11.19,7.74-21.64,14.92-30.55,17.74-22,47.15-34.19,75.17-30.53,32.07,4.19,60.32,29.51,67.98,60.94,7.66,31.42-5.76,66.9-32.29,85.39-26.54,18.49-64.47,18.78-91.29,.7,7.41-7.81,14.81-15.62,22.22-23.43,16.44,8.84,38,7.02,52.79-4.36,14.79-11.39,22.06-31.69,17.98-49.9-4.09-18.21-19.27-33.43-37.45-37.66s-38.47,2.66-50.39,17.02c-4.16,5.01-7.35,10.85-9.04,17.13-1.84,6.85-1.87,14.04-1.9,21.13-.09,32.13-.19,64.25-.28,96.38,0,1.88-.02,3.81-.74,5.55-.74,1.77-2.14,3.17-3.51,4.52-8.6,8.45-17.2,16.9-25.79,25.34Z"/>
    <path class="cls-1" d="M235.08,133.42c5.47-5.5,10.93-11,16.4-16.5,5.53,5.64,11.07,11.28,16.6,16.92-5.34,5.36-10.67,10.72-16.01,16.08-5.66-5.5-11.33-11-16.99-16.5Z"/>
    <path class="cls-1" d="M542.35,212.9c10.21-9.59,20.43-19.18,30.64-28.77-.06-22.41-2.32-57.87-.17-67.23,.81-3.55,4.01-12.52,12.77-19.74,11.39-9.39,24.3-9.02,27.4-8.85-.11-10.55-.23-21.11-.34-31.66-7.71,.19-19.85,1.66-32.51,8.51-2.96,1.6-26.64,14.89-34.38,42.38-1.43,5.06-1.98,9.42-2.21,12.43-.4,30.98-.79,61.96-1.19,92.94Z"/>
    <path class="cls-1" d="M527.66,58.65c5.23,5.57,10.45,11.14,15.68,16.71,5.77-5.43,11.55-10.86,17.32-16.29-5.73-5.57-11.45-11.14-17.18-16.71-5.27,5.43-10.55,10.86-15.82,16.29Z"/>
    <g>
      <path class="cls-1" d="M388.2,40.93c.63,.55,1.13,1.21,1.1,2.02-.02,.54-.29,1.03-.56,1.49-2.65,4.52-6.52,8.3-11.1,10.85-1.08,.6-2.29,1.13-3.54,1.19-.6,.03-1.42-.05-2.45-.8-.17-.12-.39-.33-.6-.55-.74-.76-1.66-1.77-2.39-2.73s-1.4-1.97-2.01-3.02c-.6-1.05-1.14-2.14-1.61-3.26-.47-1.12-.87-2.27-1.19-3.44-.21-.77-.39-1.54-.54-2.32-1.15-5.98-.45-12.26,1.72-17.95,1.43-3.73,3.59-7.35,6.93-9.55,.19-.13,.4-.25,.64-.27,.51-.03,.91,.52,.93,1.03s-.23,1-.43,1.47c-2.1,4.81-.63,10.58,2.42,14.85s7.46,7.34,11.79,10.3c.3,.21,.61,.43,.9,.68Z"/>
      <path class="cls-1" d="M394.12,47.33c-.03,.54-.29,1.03-.56,1.49-2.65,4.51-6.52,8.3-11.1,10.84-1.08,.6-2.28,1.13-3.54,1.19-.6,.03-1.42-.04-2.45-.79-.16-.12-.4-.33-.6-.54-.43-.45-.92-.98-1.4-1.53,.67,.32,1.23,.35,1.66,.34,1.25-.07,2.46-.59,3.54-1.19,4.58-2.55,8.45-6.33,11.1-10.85,.27-.47,.54-.96,.56-1.49,0-.29-.05-.56-.16-.81,.32,.22,.63,.44,.95,.66,.3,.2,.61,.42,.9,.67,.63,.55,1.13,1.21,1.11,2.02Z"/>
    </g>
    <g>
      <path class="cls-1" d="M468.6,40.93c-.63,.55-1.13,1.21-1.1,2.02,.02,.54,.29,1.03,.56,1.49,2.65,4.52,6.52,8.3,11.1,10.85,1.08,.6,2.29,1.13,3.54,1.19,.6,.03,1.42-.05,2.45-.8,.17-.12,.39-.33,.6-.55,.74-.76,1.66-1.77,2.39-2.73s1.4-1.97,2.01-3.02c.6-1.05,1.14-2.14,1.61-3.26,.47-1.12,.87-2.27,1.19-3.44,.21-.77,.39-1.54,.54-2.32,1.15-5.98,.45-12.26-1.72-17.95-1.43-3.73-3.59-7.35-6.93-9.55-.19-.13-.4-.25-.64-.27-.51-.03-.91,.52-.93,1.03s.23,1,.43,1.47c2.1,4.81,.63,10.58-2.42,14.85-3.05,4.27-7.46,7.34-11.79,10.3-.3,.21-.61,.43-.9,.68Z"/>
      <path class="cls-1" d="M462.68,47.33c.03,.54,.29,1.03,.56,1.49,2.65,4.51,6.52,8.3,11.1,10.84,1.08,.6,2.28,1.13,3.54,1.19,.6,.03,1.42-.04,2.45-.79,.16-.12,.4-.33,.6-.54,.43-.45,.92-.98,1.4-1.53-.67,.32-1.23,.35-1.66,.34-1.25-.07-2.46-.59-3.54-1.19-4.58-2.55-8.45-6.33-11.1-10.85-.27-.47-.54-.96-.56-1.49,0-.29,.05-.56,.16-.81-.32,.22-.63,.44-.95,.66-.3,.2-.61,.42-.9,.67-.63,.55-1.13,1.21-1.11,2.02Z"/>
    </g>
    <path class="cls-1" d="M413.04,133.64c5.53-5.53,11.07-11.07,16.6-16.6,5.47,5.53,10.93,11.07,16.4,16.6-5.6,5.47-11.2,10.93-16.8,16.4-5.4-5.47-10.8-10.93-16.2-16.4Z"/>
    <path class="cls-1" d="M648.5,169.07c5.53-5.53,11.07-11.07,16.6-16.6,5.47,5.53,10.93,11.07,16.4,16.6-5.6,5.47-11.2,10.93-16.8,16.4-5.4-5.47-10.8-10.93-16.2-16.4Z"/>
    <path class="cls-1" d="M452.48,179.2c-21.19,9.21-44.84,5.67-59.57-8.77-14.82-14.52-14.44-34-14.3-37.53,.73-18.73,12-38.44,32.43-46.47,20.64-8.11,42.75-1.18,55.66,12.26,7.8,8.11,11.88,17.07,12.26,22.47,1.05,15.21,0,41.36,0,61.36,10.38,10.13,20.77,20.26,31.15,30.38,0-30.89,.84-65.54,0-94.04-.29-9.87-10.52-41.65-46.98-58.21-27.68-12.57-61.94-9.28-86.04,10.72-23.8,19.74-27.42,47.25-28.08,53.62-.47,4.49-3.57,40.23,23.74,66.64,20.77,20.08,45.9,21.96,53.36,22.21,23.05,.78,39.94-8.47,46.47-12.51-6.7-7.38-13.39-14.75-20.09-22.13Z"/>
    <path class="cls-1" d="M405.41,221.05c.47,.33,.93,.67,1.4,1,3.04,2.12,5.99,4.37,9.13,6.33,5.96,3.72,14.29,4.53,21.5,4.69,4.11,.09,8.07-.54,11.95-1.75,5.58-1.73,11.07-3.74,16.7-5.28,3.34-.91,8.08-2.68,11.56-2.52,5.53,.26,9.17,2.52,9.64,2.46-2.3-4.94-10.06-7.11-11.74-8.85,7.91-.4,12.32,2.57,19.33,6.71,4.62,2.73,9.43,5.13,14.57,6.75,.2,.06,.41,.11,.74,.2-.79-3.04-1.55-5.98-2.32-8.92,.13-.08,.27-.16,.4-.24,5.55,4.67,11.1,9.34,16.76,14.1,.55-3.69,1.45-4.43,4.8-4.23,2.03,.12,2.63,1.18,2.8,5.14,1.65-.57,3.23-1.12,4.81-1.67,1.21-.42,2.42-.82,3.62-1.28,.81-.31,1.29-.14,1.5,.74,.17,.75,.42,1.47,.66,2.31,1.77,.04,3.59,.11,5.41,.13,6.31,.05,12.62,.08,18.93,.11,5.63,.03,11.26,.03,16.88,.08,7.34,.06,14.68,.16,22.02,.22,5.29,.04,10.57,.02,15.86,.08,8.4,.1,16.79,.26,25.19,.35,4.14,.04,8.27-.06,12.41-.04,7.33,.04,14.67,.15,22,.2,7.21,.05,14.41,.05,21.62,.11,5.07,.04,10.14,.16,15.2,.2,4.18,.04,8.36-.02,12.54,.02,5.15,.04,10.31,.15,15.46,.21,3.58,.04,63.81,1.33,67.39,1.4,2.39,.05,4.37,1.86,4.55,4.03,.19,2.38-1.42,4.68-3.81,5.04-1.58,.24-59.87-1.22-61.49-1.22-6.48-.03-12.96-.05-19.44-.13-4.99-.06-9.97-.25-14.96-.3-4.17-.04-8.34,.07-12.52,.06-3.54,0-7.07-.09-10.61-.12-4.48-.03-8.96-.03-13.44-.06-4.22-.04-8.44-.13-12.66-.17-5.24-.04-10.48-.03-15.72-.07-7.88-.05-15.77-.12-23.65-.19-7.33-.07-14.67-.16-22-.23-6.69-.06-13.38-.1-20.06-.14-6.61-.04-13.21-.06-19.82-.11-7.89-.05-15.77-.12-23.66-.18q-2.29-.02-2.82,2.25c-.1,.41-.21,.82-.38,1.51-3.06-.95-6.09-1.89-9.25-2.86-.09,1.32,.32,3.09-1.32,3.83-1,.45-2.22,.56-3.34,.54-1.78-.03-2.48-1.05-2.96-4.22-1.54,1.55-2.97,2.86-4.24,4.3-1.82,2.08-3.37,4.41-5.32,6.36-3.27,3.29-7.33,5.41-11.62,7.09-1.14,.45-2.29,.87-3.78,1.43,1.11-2.46,2.09-4.63,3.07-6.8-.05-.06-.1-.13-.15-.19-1.69,1.03-3.31,2.19-5.07,3.08-3.38,1.71-6.75,3.53-10.3,4.83-4.35,1.59-8.92,1.67-13.51,.82-4.93-.91-9.44-2.86-13.81-5.22-.36-.2-.69-.46-1.13-.76,2.01-.13,3.87-.26,5.74-.38,.05-.14,.1-.27,.15-.41-2.11-1.05-4.13-2.36-6.35-3.1-7.44-2.48-15.15-2.63-22.9-2.24-1.09,.06-2.19,.02-3.61,.02,2.61-1.14,4.94-2.16,7.5-3.28-.72-.38-1.26-.66-1.81-.94-2.77-1.41-5.6-2.72-8.3-4.25-3.64-2.06-6.75-4.77-9.07-8.3-4.33-6.59-10.62-11.4-14.94-18,.03-.04,.07-.08,.1-.12Z"/>
    <path class="cls-1" d="M405.87,257.4c.06,.07-9.91,7.34-20.91,7.92-13.19,.7-26.4-1.2-39.57-2.33-7.19-.62-14.62-1.3-21.48,.94-5.75,1.88-11.14,6.4-11.9,12.4-.19,1.52-.03,3.21,.98,4.36,1.31,1.5,3.74,1.62,5.51,.7s2.99-2.63,3.91-4.41c.9-1.76,1.79-3.83,3.67-4.42,1.36-.42,2.9,.14,3.91,1.16,1,1.02,1.54,2.41,1.8,3.82,.98,5.2-1.67,10.8-6.15,13.61-4.48,2.81-10.47,2.84-15.14,.37-4.67-2.48-7.96-7.27-8.93-12.47-.74-3.95-.19-8.14,1.57-11.75,2.5-5.14,7.32-8.91,12.65-10.98s11.15-2.57,16.86-2.41c12.44,.36,24.56,3.78,36.84,5.76,6.23,1.01,12.38,1.8,18.69,1.49,3.13-.16,6.43-.73,9.49-1.43,1.52-.35,3.01-.82,4.5-1.27,.75-.23,1.51-.39,2.23-.68,.37-.15,.66-.22,1.46-.38Z"/>
    <path class="cls-1" d="M367.78,234.49c-.91,.02-1.82,.06-2.74,.11-.64,.04-1.28,.09-1.91,.15-9.91,.94-19.54,4.41-29.49,4.37-2.59,0-5.23-.27-7.61-1.3s-4.48-2.92-5.27-5.39c-1.08-3.35,.46-7.12,2.96-9.6,2.98-2.95,7.32-4.46,11.48-4-.96,1.39-1.94,2.8-2.5,4.4-.56,1.6-.67,3.43,.09,4.94,.76,1.52,2.32,2.54,3.96,2.99s3.38,.39,5.08,.21c4.08-.42,8.08-1.48,12.16-1.91,7.44-.79,14.96,.52,22.19,2.44,4.59,1.21,9.12,2.67,13.68,4,1.15,.33,2.29,.66,3.44,.97,.58,.16,1.15,.31,1.73,.46,.28,.07,.55,.14,.83,.21,.2,.05,.75,.08,.9,.22,.09,.08,.16,.17,.05,.3-.13,.15-.44,0-.6-.03-.54-.11-1.08-.22-1.63-.33-1.09-.22-2.17-.44-3.26-.65-4.34-.84-8.71-1.6-13.11-2.07-3.47-.37-6.96-.57-10.45-.5Z"/>
    <path class="cls-1" d="M728.97,150.49c-3.96-9.86-13.25-16.52-22.61-21.55-9.36-5.02-19.45-9.11-27.29-16.27-7.85-7.17-13.05-18.61-9.28-28.55,9.29,5.8,19.17,10.65,29.45,14.45,2.93,1.08,5.99,2.09,9.09,1.8,8.83-.85,13.68-11.43,22.18-13.95-16.36-4.39-31-14.91-40.36-29.03-11.95,7.02-23.49,14.73-34.55,23.08-3.92,2.96-7.85,6.08-10.53,10.2-5.09,7.83-4.82,18.35-.94,26.85,3.87,8.5,10.91,15.21,18.6,20.52,7.68,5.31,16.14,9.4,24.18,14.15,5.05,2.96,10.04,6.27,13.55,10.95,3.52,4.67,5.34,10.97,3.4,16.49-2.48,7.09-10.23,10.91-17.58,12.47-12.93,2.75-26.82,.65-38.37-5.77-7.28-4.05-13.75-9.94-17.31-17.48-2.64-5.6-3.5-12.15-2.06-18.12l-25.48,7.54c-7.17,12.07-4.62,28.67,6.1,38.39,6.75,6.12,15.48,9.57,24.25,12.03,16,4.48,33.07,5.99,49.27,2.33,16.2-3.65,31.46-12.82,40.74-26.6,3.4-5.05,5.94-10.91,7.01-16.9,1.04-5.75,.72-11.61-1.45-17.03Z"/>
    <g>
      <path class="cls-1" d="M701.3,58.71c-1.29,1.46-3.56,4.15-3.45,5.21-.01,1.58,8,8.36,8.5,8.53,1.8-2.06,2.64-3.31,3.37-5,.66-1.53,.97-3.11,.75-4.45-.13-.79-.43-1.39-.99-1.93-1.23-1.17-2.24-2.22-2.88-3.75-.12-.29-.5-1.26-.55-2.95-.21-.05-3.2,2.58-4.75,4.34Z"/>
      <path class="cls-1" d="M712.36,45.92c.02-.3,.01-.49-.23-.49-.23,0-.38,.22-.52,.46-.28,.49-.57,.97-.89,1.44-.39,.58-.81,1.15-1.22,1.72-.2,.28-.36,.57-.55,.86-.79,1.47-1.08,2.7-1.13,3.86-.08,1.83,.51,3.21,1.57,4.33,.46,.49,.98,.93,1.52,1.36,.53,.43,.9,.95,.85,1.73-.03,.36,.24,.59,.56,.36,.96-.71,1.76-1.87,2.82-3.67,1.87-3.19,1.4-5.45-.28-7.12s-2.63-3.39-2.51-4.82Z"/>
      <path class="cls-1" d="M716.06,37.91c-.14-.32-.27-.67-.36-1.05-.2-.82-.65-.84-1.1-.02-.28,.51-.45,1.15-.69,2.39-.26,1.47-.56,3.12-.59,4.62-.04,1.85,.11,3.41,.97,4.42,.77,.91,2.05,1.99,2.42,2.73,.18,.34,1.33-1.6,2.03-3.81,.33-1.06,.43-2.17,.52-3.27,.12-1.47-.42-2.52-1.18-3.31-.74-.78-1.49-1.54-2.01-2.7Z"/>
      <path class="cls-1" d="M720.33,34.84c-.26-3.61-1.44-7.23-3.22-11.07-.26-.57-.54-1.15-.83-1.74-.31-.64-.5-.85-.73-.82-.26,.04-.3,.31-.14,.97,.42,1.72,.69,3.41,.85,5.06,.1,1.07,.31,5.53,.43,6.65,.13,1.14,.78,3.33,1.35,4.16,.61,.89,1.01,1.25,1.32,1.4,.21,.1,.38,.15,.6-.01,.25-.19,.31-.44,.33-.76,.09-1.26,.14-2.55,.05-3.85Z"/>
    </g>
    <text class="cls-2" transform="translate(536.35 278.29)"><tspan class="cls-7" x="0" y="0">Auro</tspan><tspan class="cls-5" x="70.12" y="0">r</tspan><tspan class="cls-7" x="84.8" y="0">a De </tspan><tspan class="cls-4" x="163.94" y="0">F</tspan><tspan class="cls-7" x="176.15" y="0">an</tspan><tspan class="cls-6" x="213.61" y="0">t</tspan><tspan class="cls-7" x="226.51" y="0">asia</tspan></text>
    <path class="cls-1" d="M251.58,37.63c-20.14,0-39.12-1.26-53.43-3.55-17.96-2.87-25.63-6.72-25.63-12.87s7.66-10,25.63-12.87c14.31-2.29,33.28-3.55,53.43-3.55s39.12,1.26,53.43,3.55c17.96,2.87,25.63,6.72,25.63,12.87s-7.66,10-25.63,12.87c-14.31,2.29-33.28,3.55-53.43,3.55Zm-68.38-16.42c7.59,3.4,32.76,7.42,68.38,7.42s60.79-4.03,68.38-7.42c-7.59-3.4-32.76-7.42-68.38-7.42s-60.79,4.03-68.38,7.42Z"/>
    <text class="cls-3" transform="translate(535.15 300.28)"><tspan x="0" y="0">6TH- 9TH APRIL’23</tspan></text>
    <path class="cls-1" d="M849.13,200.52c-2.22-2.81-4.47-4.91-7.68-5.81-2.44-.68-4.55-2-6.26-3.88-.59-.65-1.14-1.36,.11-2.01,.19-.1,.28-.94,.09-1.14-2.49-2.7-2.8-6.12-3.33-9.5-.75-4.81-5.13-7.71-7.33-8.08-2.68-.45-4.66,2.21-5.69,5.02-.34,.92-1.01,1.77-1.69,2.5-3.2,3.44-3.99,6.81-6.18,10.91-.83,1.56-1.61,5.74-11.12,15.35-2.81,3.56-1.75,4.1-5.34,9.05-1.56,.42-13.52-.65-15.14-.48-.03-.1-.05-.2-.08-.3,.17-.11,.34-.28,.53-.33,6.06-1.52,10.37-5.4,13.96-10.28,.92-1.25,1.8-2.6,2.96-3.6,1.14-.99,2.63-1.58,3.95-2.37,1.11-.66,2.34-1.21,3.26-2.08,2.54-2.39,4.19-5.4,5.25-8.68,.92-2.84,2.38-6.23,4.19-8.52,1.88-2.38,4.88-7.03,6.68-9.47,.67-.91,2.56-5.18,3.62-5.05,3.59,.43,4.83,2.92,7.5,5.94,.46,.52,2.65,3.34,3.04,3.96,1.3,2.07,2.43,4.24,3.65,6.36,.86,1.5,1.74,2.98,2.61,4.48,.61,1.05,1.32,1.05,2.08,.18,.89-1.01,1.76-2.04,2.63-3.07,.49-.58,1-1.16,1.39-1.8,3.15-5.21,9.24-3.21,12.38-.55,1.97,1.67,4.24,2.74,6.76,2.84,3.69,.14,5.67,2.17,6.88,5.35,.51,1.34,.93,2.71,1.48,4.02,.6,1.41,1.62,2.53,3.07,3.03,2.82,.96,5.69,1.75,8.52,2.7,.96,.32,2.08,.71,2.69,1.44,2.67,3.14,5.79,5.64,9.55,7.33,.14,.06,.24,.2,.3,.54-.99-.14-1.99-.28-3.26-.46,1.79,1.66,3.4,3.15,5,4.64-.07,.12-.14,.24-.21,.36-.47-.16-.99-.23-1.4-.48-1.88-1.12-3.72-2.31-5.6-3.44-1.55-.93-3.12-1.84-4.7-2.72-.46-.25-.99-.36-1.6-.38,.74,1.63,2.23,2.47,3.54,3.49,1.29,1.01,2.56,2.06,3.84,3.09-.1,.16-.21,.32-.31,.48-.69-.23-1.46-.35-2.07-.73-1.89-1.18-3.71-2.48-5.56-3.71-.77-.51-1.53-1.03-2.35-1.45-.25-.13-.68,.1-1.03,.16,.08,.35,.05,.82,.26,1.01,1,.9,2.05,1.75,3.12,2.57,1.15,.88,2.33,1.71,3.5,2.56-.05,.14-.11,.29-.16,.43-1.02-.05-2.07,.03-3.07-.17-2.63-.52-5.25-1.13-7.85-1.79-.68-.17-1.34-.55-1.9-.97-.39-.29-.6-.81-.89-1.23,.5-.11,1.07-.41,1.49-.28,1.03,.33,2,.85,2.98,1.33,.66,.33,1.3,.72,1.94,1.08,.12-.09,.24-.18,.36-.28-.23-.47-.36-1.06-.72-1.37-.69-.6-1.5-1.07-2.29-1.54-3.22-1.9-6.51-3.69-9.68-5.67-4.03-2.52-7.96-5.22-11.97-7.78-.81-.52-1.8-.78-2.79-.99,1.8,2.33,4.91,3,6.85,5.58-.68,0-1.09,.08-1.46-.01-2.92-.72-5.58-1.95-7.61-4.25-.6-.68-1.17-1.52-1.35-2.38-.15-.71,.11-1.66,.51-2.29,.52-.81,1.5-.95,2.39-.52,1.32,.64,2.6,1.39,3.91,2.05,1,.5,2.02,.94,3.04,1.41,.08-.13,.16-.26,.23-.38-.77-.58-1.55-1.15-2.32-1.74-1.4-1.07-2.88-2.07-4.15-3.28-.62-.59-.88-1.57-1.22-2.41-.84-2.08-.51-5.81-1.91-5.62-1.07,.15-1.84,1.07-2.53,1.89-1.48,1.76-2.13,4.02-3.85,5.52-1.6,1.41-4.61,1.59-6.64,.38-.18-.11-.39-.22-.59-.21-.3,0-.6,.12-.9,.18,.09,.26,.11,.59,.28,.77,.34,.37,.73,.71,1.16,.97,6.65,4.07,13.27,8.17,19.97,12.14,2.28,1.35,4.75,2.42,7.57,1.93,.32-.06,.68,.03,1,.14,2.8,.99,4.81,2.97,6.88,5.43-.68-.07-1.04-.19-1.36-.11-.39,.09-.74,.35-1.11,.53,.28,.32,.5,.75,.84,.95,2.28,1.33,4.59,2.6,6.89,3.9,.47,.27,.92,.58,1.38,.86-.15,.24-.29,.47-.44,.71-.84-.18-1.77-.2-2.51-.58-2.78-1.4-5.55-2.84-8.24-4.41-3.45-2.03-6.79-4.24-10.23-6.3-1.15-.69-2.5-1.03-3.64-1.73-1.25-.76-2.46-1.64-3.51-2.64-3.22-3.05-7.01-5.08-11.16-6.52-.67-.23-1.41-.24-2.12-.35-.06,.14-.12,.27-.18,.41,.61,.46,1.21,.95,1.84,1.37,3.78,2.53,7.53,5.1,11.37,7.54,3.02,1.92,6.14,3.67,9.23,5.49,1.56,.92,3.16,1.78,4.7,2.73,.5,.31,.87,.82,1.31,1.25-.06,.15-.13,.3-.19,.44-.61-.08-1.29,0-1.82-.25-2.67-1.25-5.3-2.58-7.95-3.89-1.53-.75-3.06-1.5-4.69-2.09,1.43,1.78,3.17,3.1,5.19,4.07,3.68,1.77,6.71,4.42,9.66,7.21-3.44-.73-6.08-3.42-9.66-3.83,.74,1.83,2.64,2.47,4.06,4.03-.68,.09-1.12,.04-1.44,.21-.58,.31-1.1,.75-1.64,1.13-.38,.27-.81,.82-1.14,.76-2.12-.38-4.1-.1-6.21,1.26,.27-.85,.43-1.33,.66-2.05-.64,.15-1.11,.26-1.57,.37-2.34,.55-3.89-.64-4.15-2.99-.05-.45-.8-.93-1.33-1.19-.46-.23-1.07-.22-1.61-.26-.92-.07-1.84-.11-3.15-.18,2.32,2.08,4.39,3.93,6.47,5.79l-.31,.36c-2.89-1.6-5.86-3.07-8.23-5.73,1.64-.84,1.82-2.18,1.9-3.62,.08-1.47,.19-2.95,.5-4.38,.17-.78,.64-1.6,1.22-2.15,.9-.86,1.54-1.76,1.59-3.03,.01-.27,.17-.54,.35-1.06,1.72,.94,3.35,1.83,5.3,2.9Zm30.65-1c.19-.28,.38-.56,.57-.84-.42-.2-.89-.34-1.26-.61-1.25-.93-2.46-1.92-3.71-2.85-1.39-1.03-2.8-2.02-4.21-3.02-.87-.62-1.61-.48-2.3,.36-.83,1-1.17,2.04-.58,3.26,.63,1.3,2.27,2.11,4,1.95-.58-.97-1.14-1.91-1.7-2.86,.17-.16,.34-.31,.51-.47,.93,.65,1.88,1.28,2.8,1.95,1.19,.86,2.3,1.85,3.56,2.59,.65,.39,1.55,.37,2.33,.54Zm-22.79-17.21c-1.5,1.74,2.2,3.56,4.04,4.11,2.1,.63,3.77,1.78,5.4,3.12,.56,.46,1.18,.86,1.77,1.29,.15-.12,.3-.25,.45-.37-.34-.58-.54-1.36-1.03-1.71-2.96-2.06-5.98-4.03-9.01-6-.38-.25-1.14-1.01-1.62-.45Zm27.19,14.07c.11,1.67,1.76,3.12,3.2,2.89-.29-1.52-1.57-2.7-3.2-2.89Zm-13.94,8.43c.07-.1,.13-.2,.2-.3-.67-1.45-1.35-1.84-2.93-1.44,1.04,.67,1.89,1.2,2.73,1.74Zm-5.36-20.37c.52-.77,.61-1.45-.24-1.93-.23-.13-.93,.02-.96,.14-.22,.95,.42,1.4,1.2,1.79Z"/>
    <g>
      <path class="cls-1" d="M870.66,181.86l-.91-.42c5.01-10.74,6.02-20.33,3.01-28.5-2.59-7.03-7.32-10.86-12.79-15.31-4.5-3.65-9.59-7.79-14.07-14.39-6.49-9.56-9.77-21.58-9.74-35.7h1c-.03,13.92,3.19,25.75,9.57,35.14,4.4,6.48,9.43,10.57,13.87,14.18,5.59,4.54,10.41,8.45,13.1,15.74,3.11,8.43,2.09,18.28-3.04,29.27Z"/>
      <path class="cls-1" d="M864.99,181.72l-.47-.33-.14,.12c-.09-.11-.13-.21-.13-.31l-.08-.06,.16-.23c.04-.09,.1-.18,.17-.28,3.26-5.13,8.16-15.36,4.38-26.24-2.34-6.74-7.11-10.47-12.63-14.8-4.74-3.71-10.1-7.91-14.55-14.75-5.87-9.02-8.46-21.91-7.5-37.25l1,.06c-.95,15.13,1.59,27.8,7.34,36.65,4.36,6.7,9.66,10.85,14.33,14.51,5.41,4.24,10.53,8.24,12.96,15.26,3.92,11.28-1.13,21.82-4.48,27.1-.08,.13-.12,.19-.13,.21h0c-.05,.1-.12,.21-.21,.33Z"/>
      <path class="cls-1" d="M860.65,180.29l-.8-.6c5.76-7.78,7.58-16.24,5.12-23.82-2.1-6.49-6.93-10.13-12.52-14.35-4.97-3.75-10.59-8-15-15.04-5.6-8.94-7.37-22-5.26-38.81l.99,.12c-2.07,16.57-.35,29.41,5.12,38.15,4.31,6.88,9.86,11.07,14.75,14.77,5.48,4.14,10.66,8.05,12.86,14.84,2.56,7.9,.69,16.68-5.27,24.73Z"/>
      <path class="cls-1" d="M857,178.62l-.79-.61c5.2-6.79,6.89-13.94,4.87-20.68-1.88-6.26-6.76-9.82-12.42-13.95-5.19-3.78-11.07-8.07-15.43-15.28-5.47-9.05-6.46-22.25-3.02-40.36l.98,.19c-3.39,17.85-2.44,30.82,2.9,39.65,4.25,7.04,10.05,11.27,15.16,14.99,5.56,4.06,10.82,7.89,12.79,14.47,2.11,7.06,.37,14.52-5.03,21.58Z"/>
      <path class="cls-1" d="M853.99,176.57l-.81-.59c4.14-5.64,5.52-11.58,3.99-17.17-1.65-6.05-6.6-9.54-12.33-13.58-5.41-3.81-11.53-8.13-15.84-15.49-5.47-9.35-5.71-22.67-.78-41.91l.97,.25c-4.86,18.97-4.65,32.05,.68,41.16,4.19,7.17,10.23,11.43,15.55,15.18,5.89,4.15,10.98,7.74,12.72,14.13,1.61,5.9,.17,12.13-4.15,18.03Z"/>
      <path class="cls-1" d="M849.81,176.39l-.79-.62c4.07-5.16,5.5-10.38,4.25-15.51-1.43-5.85-6.44-9.27-12.25-13.24-5.62-3.83-12-8.18-16.25-15.68-7.21-12.73-2.62-30.9,1.46-43.46l.95,.31c-6.4,19.68-6.88,33.24-1.54,42.66,4.14,7.3,10.41,11.57,15.94,15.35,5.98,4.08,11.14,7.6,12.66,13.83,1.33,5.44-.17,10.95-4.43,16.36Z"/>
      <path class="cls-1" d="M839.66,182.04l-.62-.79c8.23-6.46,11.71-13.03,10.33-19.53-1.2-5.67-6.29-9.02-12.18-12.91-5.84-3.85-12.45-8.22-16.65-15.84-7.36-13.37-1.41-32.1,3.71-45.02l.93,.37c-5.04,12.73-10.92,31.16-3.76,44.17,4.07,7.41,10.58,11.7,16.32,15.49,6.07,4.01,11.32,7.47,12.61,13.54,1.46,6.9-2.13,13.8-10.69,20.52Z"/>
      <path class="cls-1" d="M838.16,179.73l-.65-.76c6.2-5.3,8.88-10.61,7.97-15.78-.97-5.49-6.13-8.79-12.1-12.6-6.05-3.87-12.92-8.25-17.05-15.99-7.59-14.2-.24-33.38,5.95-46.57l.9,.42c-6.1,13-13.36,31.87-5.98,45.67,4.01,7.5,10.76,11.81,16.71,15.62,6.17,3.94,11.5,7.35,12.55,13.27,.98,5.54-1.81,11.16-8.3,16.71Z"/>
      <path class="cls-1" d="M836.71,177.41l-.7-.72c4.23-4.09,6.11-8.15,5.57-12.04-.73-5.32-5.96-8.56-12.02-12.3-6.27-3.88-13.38-8.28-17.46-16.12-5.93-11.39-3.24-27.13,8.2-48.12l.88,.48c-11.27,20.68-13.95,36.11-8.19,47.18,3.95,7.6,10.94,11.92,17.1,15.73,6.27,3.88,11.69,7.23,12.48,13.02,.58,4.23-1.39,8.57-5.86,12.9Z"/>
      <path class="cls-1" d="M835.6,174.55l-.78-.62c2.14-2.67,3.1-5.3,2.87-7.82-.48-5.15-5.79-8.33-11.93-12.01-6.49-3.89-13.85-8.3-17.87-16.24-6.11-12.05-2.59-28.76,10.45-49.67l.85,.53c-12.84,20.59-16.34,36.97-10.4,48.68,3.89,7.68,11.12,12.01,17.5,15.84,6.38,3.82,11.88,7.12,12.41,12.78,.26,2.79-.77,5.66-3.08,8.54Z"/>
    </g>
    <path class="cls-1" d="M140.77,125.38h0c-6.45-10.18-18.32-21.81-35.28-34.57-17.11-12.88-22.61-17.47-24.19-19.02-4.16-4.24-7.03-8.12-8.52-11.54-1.46-3.34-2.2-6.84-2.2-10.4,0-5.68,1.93-10.32,5.89-14.18,4-3.9,9.09-5.79,15.56-5.79,5.06,0,9.79,1.32,14.08,3.94,4.52,2.75,10.25,8.8,17.05,17.98l2.94,3.97,23.22-17.94-2.73-3.79c-9.12-12.7-18.01-21.62-26.43-26.5C111.6,2.56,102.27,.04,92.42,.04c-9.29,0-18.03,2.24-25.97,6.64-8,4.44-14.29,10.61-18.71,18.34-4.4,7.69-6.62,16.31-6.62,25.61,0,11.71,3.72,22.7,11.05,32.65,4.22,5.93,14.3,14.99,30.8,27.69,15.4,11.84,26.09,22,31.77,30.22,3.75,5.43,5.65,10.97,5.65,16.49,0,4.86-1.27,10.54-3.78,14.9-2.48,4.32-5.71,7.79-10.52,10.68-16.63,10.01-30.91,.93-37.91-4.2-1.14-1-3.26-1-4.6-.56-6.56,2.15-13.24,2.14-19.72,.53-9.22-2.28-18.34-15.4-27.55-17.68-2.3-.57-3.86,1.88-6.17,1.85-3.62-.04-7.05-1.39-10.15,1.76,14.34-3.17,27.8,20.1,50,34.67,2.16,1.51,4.59,3.1,7.33,4.72,10.59,6.26,21.77,10.3,34.32,10.3,16.35,0,30.43-5.74,41.87-17.05,11.45-11.33,17.25-24.89,17.25-40.31,0-10.7-3.36-21.43-9.99-31.9Z"/>
    <path class="cls-1" d="M112.07,175.18c-5.2-5.49-11.74-7.73-19.21-8.58,1.2-3.32,3.73-6.83-.26-9.39-1.4-.92-4.28-1.02-5.71-.19-4.35,2.53-1.62,6.23-.51,9.7-7.73,.29-14.37,2.5-19.92,8.03,12.81,4.83,25.58,5.44,38.6,3.4,3.62-.52,6.69-1.57,7.88-2.33-.33-.19-.62-.4-.86-.65Zm-32.56-.74c-1.05,0-1.9-.85-1.9-1.9s.85-1.91,1.9-1.91,1.91,.86,1.91,1.91-.86,1.9-1.91,1.9Zm10.66,1.33c-1.42,0-2.57-1.14-2.58-2.57s1.14-2.58,2.56-2.59,2.58,1.15,2.59,2.57-1.14,2.58-2.57,2.59Zm10.67-1.37c-1.06,0-1.91-.85-1.91-1.9s.85-1.91,1.91-1.91,1.9,.86,1.9,1.91-.85,1.9-1.9,1.9Z"/>
    <path class="cls-1" d="M109.26,228.4s-8.73-.61-18.12-.61-18.12,.61-18.12,.61c-1.12,0-2.02-.9-2.02-2.02v-.79c0-5.09,3.74-9.31,8.62-10.06,.81-.12,1.63-.09,2.44,.02,1.46,.21,4.66,.57,9.07,.57,4.74,0,7.59-.31,8.97-.52,.88-.13,1.77-.19,2.65-.05,4.84,.79,8.53,4.99,8.53,10.04v.79c0,1.12-.9,2.02-2.02,2.02Z"/>
  </g>
</svg>