<svg width="61" height="61" viewBox="0 0 61 61" fill="none" xmlns="http://www.w3.org/2000/svg">
<path d="M0.428978 61V45.0199C0.428978 40.1667 1.28717 35.0175 3.00355 29.5724C4.77912 24.0682 7.3241 18.7711 10.6385 13.6811C14.0121 8.53195 18.0663 4.06344 22.8011 0.275563L25.9972 4.53692C20.0786 9.39014 15.2846 15.6046 11.6151 23.1804C7.94555 30.697 6.1108 37.9768 6.1108 45.0199V61H0.428978ZM34.5199 61V45.0199C34.5199 40.1667 35.3781 35.0175 37.0945 29.5724C38.87 24.0682 41.415 18.7711 44.7294 13.6811C48.103 8.53195 52.1572 4.06344 56.892 0.275563L60.0881 4.53692C54.1695 9.39014 49.3755 15.6046 45.706 23.1804C42.0365 30.697 40.2017 37.9768 40.2017 45.0199V61H34.5199Z" fill="#ADADAD"/>
</svg>
